<svg id="ART" xmlns="http://www.w3.org/2000/svg" xmlns:xlink="http://www.w3.org/1999/xlink"
  viewBox="0 0 48 48">
  <defs>
    <linearGradient id="linear-gradient" x1="4.5" y1="-15.85" x2="4.5" y2="105.07"
      gradientUnits="userSpaceOnUse">
      <stop offset="0" stop-color="#273a9b" />
      <stop offset=".56" stop-color="#202f65" />
      <stop offset="1" stop-color="#021e2f" />
    </linearGradient>
    <linearGradient id="linear-gradient-2" x1="478.5" y1="-645.85" x2="478.5" y2="-524.93"
      gradientTransform="rotate(-90 576 -54)" xlink:href="#linear-gradient" />
    <linearGradient id="linear-gradient-3" x1="35.5" y1="5.29" x2=".12" y2="5.29"
      gradientUnits="userSpaceOnUse">
      <stop offset="0" stop-color="#fff" />
      <stop offset=".52" stop-color="#cce2e6" />
      <stop offset="1" stop-color="#8fa1bb" />
    </linearGradient>
    <linearGradient id="linear-gradient-4" x1="35.5" y1="9.04" x2=".12" y2="9.04"
      xlink:href="#linear-gradient-3" />
    <linearGradient id="linear-gradient-5" x1="35.5" y1="12.79" x2=".12" y2="12.79"
      xlink:href="#linear-gradient-3" />
    <linearGradient id="linear-gradient-6" x1="35.5" y1="16.54" x2=".12" y2="16.54"
      xlink:href="#linear-gradient-3" />
    <linearGradient id="linear-gradient-7" x1="35.5" y1="20.29" x2=".12" y2="20.29"
      xlink:href="#linear-gradient-3" />
    <linearGradient id="linear-gradient-8" x1="35.5" y1="24.04" x2=".12" y2="24.04"
      xlink:href="#linear-gradient-3" />
    <linearGradient id="linear-gradient-9" x1="35.5" y1="27.79" x2=".12" y2="27.79"
      xlink:href="#linear-gradient-3" />
    <linearGradient id="linear-gradient-10" x1="35.5" y1="31.54" x2=".12" y2="31.54"
      xlink:href="#linear-gradient-3" />
    <linearGradient id="linear-gradient-11" x1="35.5" y1="35.29" x2=".12" y2="35.29"
      xlink:href="#linear-gradient-3" />
    <linearGradient id="linear-gradient-12" x1="35.5" y1="39.04" x2=".12" y2="39.04"
      xlink:href="#linear-gradient-3" />
    <linearGradient id="linear-gradient-13" x1="15.75" y1="25.88" x2="15.75" y2="47.48"
      gradientUnits="userSpaceOnUse">
      <stop offset="0" stop-color="#f3c57a" />
      <stop offset=".49" stop-color="#f39369" />
      <stop offset="1" stop-color="#e94867" />
    </linearGradient>
    <linearGradient id="linear-gradient-14" y1="21.38" x2="15.75" y2="42.98"
      xlink:href="#linear-gradient-13" />
    <linearGradient id="linear-gradient-15" y1="16.88" x2="15.75" y2="38.48"
      xlink:href="#linear-gradient-13" />
    <linearGradient id="linear-gradient-16" y1="12.38" x2="15.75" y2="33.98"
      xlink:href="#linear-gradient-13" />
    <linearGradient id="linear-gradient-17" x1="15.75" y1="6.75" x2="15.75" y2="-24.27"
      xlink:href="#linear-gradient" />
    <linearGradient id="linear-gradient-19" x1="26.25" y1="25.88" x2="26.25" y2="47.48"
      xlink:href="#linear-gradient-13" />
    <linearGradient id="linear-gradient-20" x1="26.25" y1="21.38" x2="26.25" y2="42.98"
      xlink:href="#linear-gradient-13" />
    <linearGradient id="linear-gradient-21" x1="26.25" y1="16.88" x2="26.25" y2="38.48"
      xlink:href="#linear-gradient-13" />
    <linearGradient id="linear-gradient-22" x1="26.25" y1="12.38" x2="26.25" y2="33.98"
      xlink:href="#linear-gradient-13" />
    <linearGradient id="linear-gradient-23" x1="26.25" y1="6.75" x2="26.25" y2="-24.27"
      xlink:href="#linear-gradient" />
    <linearGradient id="linear-gradient-25" x1="26.25" y1="33.88" x2="26.25" y2="-1.22"
      gradientUnits="userSpaceOnUse">
      <stop offset="0" stop-color="#27e9de" />
      <stop offset=".52" stop-color="#03a4ec" />
      <stop offset="1" stop-color="#2547a8" />
    </linearGradient>
    <linearGradient id="linear-gradient-27" x1="36.75" y1="25.88" x2="36.75" y2="47.48"
      xlink:href="#linear-gradient-13" />
    <linearGradient id="linear-gradient-28" x1="36.75" y1="21.38" x2="36.75" y2="42.98"
      xlink:href="#linear-gradient-13" />
    <linearGradient id="linear-gradient-29" x1="36.75" y1="16.88" x2="36.75" y2="38.48"
      xlink:href="#linear-gradient-13" />
    <linearGradient id="linear-gradient-30" x1="36.75" y1="12.38" x2="36.75" y2="33.98"
      xlink:href="#linear-gradient-13" />
    <style>
      .cls-17{fill:url(#linear-gradient-17)}.cls-22{fill:url(#linear-gradient-23)}.cls-23{fill:url(#linear-gradient-25)}</style>
  </defs>
  <path d="M6 45a3 3 0 0 1-3-3V4.5A1.5 1.5 0 0 1 4.5 3 1.5 1.5 0 0 1 6 4.5z"
    style="fill:url(#linear-gradient)" />
  <path d="M45 43.5a1.5 1.5 0 0 1-1.5 1.5H6a3 3 0 0 1-3-3h40.5a1.5 1.5 0 0 1 1.5 1.5z"
    style="fill:url(#linear-gradient-2)" />
  <circle cx="8.25" cy="5.29" r=".75" style="fill:url(#linear-gradient-3)" />
  <circle cx="8.25" cy="9.04" r=".75" style="fill:url(#linear-gradient-4)" />
  <circle cx="8.25" cy="12.79" r=".75" style="fill:url(#linear-gradient-5)" />
  <circle cx="8.25" cy="16.54" r=".75" style="fill:url(#linear-gradient-6)" />
  <circle cx="8.25" cy="20.29" r=".75" style="fill:url(#linear-gradient-7)" />
  <circle cx="8.25" cy="24.04" r=".75" style="fill:url(#linear-gradient-8)" />
  <circle cx="8.25" cy="27.79" r=".75" style="fill:url(#linear-gradient-9)" />
  <circle cx="8.25" cy="31.54" r=".75" style="fill:url(#linear-gradient-10)" />
  <circle cx="8.25" cy="35.29" r=".75" style="fill:url(#linear-gradient-11)" />
  <circle cx="8.25" cy="39.04" r=".75" style="fill:url(#linear-gradient-12)" />
  <rect x="12" y="37.5" width="7.5" height="3" rx=".54" ry=".54"
    style="fill:url(#linear-gradient-13)" />
  <rect x="12" y="33" width="7.5" height="3" rx=".54" ry=".54" style="fill:url(#linear-gradient-14)" />
  <rect x="12" y="28.5" width="7.5" height="3" rx=".54" ry=".54"
    style="fill:url(#linear-gradient-15)" />
  <rect x="12" y="24" width="7.5" height="3" rx=".54" ry=".54" style="fill:url(#linear-gradient-16)" />
  <rect class="cls-17" x="12" y="19.5" width="7.5" height="3" rx=".54" ry=".54" />
  <rect class="cls-17" x="12" y="15" width="7.5" height="3" rx=".54" ry=".54" />
  <rect x="22.5" y="37.5" width="7.5" height="3" rx=".54" ry=".54"
    style="fill:url(#linear-gradient-19)" />
  <rect x="22.5" y="33" width="7.5" height="3" rx=".54" ry=".54"
    style="fill:url(#linear-gradient-20)" />
  <rect x="22.5" y="28.5" width="7.5" height="3" rx=".54" ry=".54"
    style="fill:url(#linear-gradient-21)" />
  <rect x="22.5" y="24" width="7.5" height="3" rx=".54" ry=".54"
    style="fill:url(#linear-gradient-22)" />
  <rect class="cls-22" x="22.5" y="19.5" width="7.5" height="3" rx=".54" ry=".54" />
  <rect class="cls-22" x="22.5" y="15" width="7.5" height="3" rx=".54" ry=".54" />
  <rect class="cls-23" x="22.5" y="10.5" width="7.5" height="3" rx=".54" ry=".54" />
  <rect class="cls-23" x="22.5" y="6" width="7.5" height="3" rx=".54" ry=".54" />
  <rect x="33" y="37.5" width="7.5" height="3" rx=".54" ry=".54"
    style="fill:url(#linear-gradient-27)" />
  <rect x="33" y="33" width="7.5" height="3" rx=".54" ry=".54" style="fill:url(#linear-gradient-28)" />
  <rect x="33" y="28.5" width="7.5" height="3" rx=".54" ry=".54"
    style="fill:url(#linear-gradient-29)" />
  <rect x="33" y="24" width="7.5" height="3" rx=".54" ry=".54" style="fill:url(#linear-gradient-30)" />
  text
  <text x="40" y="16" font-family="Arial, sans-serif" font-size="4"
    fill="#fff" text-anchor="middle">Chartex</text>
</svg>
